<svg width="96" height="96" viewBox="0 0 96 96" fill="none" xmlns="http://www.w3.org/2000/svg">
  <rect width="96" height="96" rx="28" fill="#7C2D12"/>
  <path d="M49 17C31 17 17 30 17 47C17 66 33 79 51 79H56C63 79 66 70 61 66C57 63 58 57 64 56H68C76 56 82 50 81 42C79 27 66 17 49 17Z" fill="#FED7AA"/>
  <circle cx="34" cy="42" r="6" fill="#EF4444"/>
  <circle cx="48" cy="34" r="6" fill="#FACC15"/>
  <circle cx="63" cy="43" r="6" fill="#22C55E"/>
  <circle cx="43" cy="58" r="6" fill="#3B82F6"/>
  <path d="M66 71L78 59" stroke="#FFF7ED" stroke-width="7" stroke-linecap="round"/>
  <path d="M73 53L83 63" stroke="#FDBA74" stroke-width="7" stroke-linecap="round"/>
</svg>
