<svg width="96" height="96" viewBox="0 0 96 96" fill="none" xmlns="http://www.w3.org/2000/svg">
  <rect width="96" height="96" rx="28" fill="#064E3B"/>
  <path d="M49 78C49 63 49 49 49 34" stroke="#D1FAE5" stroke-width="7" stroke-linecap="round"/>
  <path d="M48 38C33 23 23 21 17 25C16 39 25 52 48 53C49 47 50 42 48 38Z" fill="#34D399"/>
  <path d="M50 34C63 18 75 17 82 22C82 38 72 50 50 50C49 44 48 39 50 34Z" fill="#A7F3D0"/>
  <path d="M48 53C37 52 28 47 22 35" stroke="#ECFDF5" stroke-width="4" stroke-linecap="round"/>
  <path d="M50 50C61 48 70 42 77 29" stroke="#065F46" stroke-width="4" stroke-linecap="round"/>
  <circle cx="36" cy="70" r="5" fill="#FDE68A"/>
  <circle cx="62" cy="68" r="4" fill="#ECFDF5"/>
</svg>
