<svg width="96" height="96" viewBox="0 0 96 96" fill="none" xmlns="http://www.w3.org/2000/svg">
  <rect width="96" height="96" rx="28" fill="#172554"/>
  <circle cx="48" cy="48" r="8" fill="#F8FAFC"/>
  <circle cx="48" cy="48" r="4" fill="#38BDF8"/>
  <path d="M18 48C18 39 31 32 48 32C65 32 78 39 78 48C78 57 65 64 48 64C31 64 18 57 18 48Z" stroke="#67E8F9" stroke-width="5"/>
  <path d="M33 22C41 18 54 29 62 45C70 61 71 78 63 82C55 86 42 75 34 59C26 43 25 26 33 22Z" stroke="#A78BFA" stroke-width="5"/>
  <path d="M63 22C71 26 70 43 62 59C54 75 41 86 33 82C25 78 26 61 34 45C42 29 55 18 63 22Z" stroke="#22D3EE" stroke-width="5"/>
</svg>
